<svg viewBox="0 0 32 32" fill="black" xmlns="http://www.w3.org/2000/svg">
<path fill-rule="evenodd" clip-rule="evenodd" d="M0 16C0 24.8201 7.17993 32 16 32C24.8288 32 32 24.8201 32 16C32 7.17994 24.8201 0 16 0C7.17993 0 0 7.17994 0 16ZM1.52672 16C1.52672 8.01745 8.02617 1.52672 16 1.52672C23.9826 1.52672 30.4733 8.01745 30.4733 16C30.4733 23.9826 23.9826 30.4733 16 30.4733C8.01745 30.4733 1.52672 23.9826 1.52672 16ZM13.612 15.125C12.121 15.881 11.176 17.183 11.176 18.926C11.176 20.207 11.638 21.257 12.562 22.076C13.507 22.895 14.683 23.294 16.09 23.294C17.497 23.294 18.673 22.895 19.597 22.076C20.542 21.257 21.004 20.207 21.004 18.926C21.004 17.183 20.059 15.881 18.568 15.125C19.807 14.453 20.542 13.214 20.542 11.807C20.542 10.694 20.122 9.791 19.261 9.077C18.4 8.363 17.35 8.006 16.09 8.006C14.83 8.006 13.78 8.363 12.919 9.077C12.058 9.791 11.638 10.694 11.638 11.807C11.638 13.214 12.373 14.453 13.612 15.125ZM18.358 16.7C18.967 17.267 19.282 17.981 19.282 18.863C19.282 20.648 17.959 21.866 16.09 21.866C14.221 21.866 12.898 20.648 12.898 18.863C12.898 17.981 13.213 17.267 13.822 16.7C14.452 16.133 15.208 15.86 16.09 15.86C16.993 15.86 17.749 16.133 18.358 16.7ZM16.09 14.516C14.473 14.516 13.276 13.466 13.276 11.954C13.276 10.295 14.515 9.35 16.09 9.35C17.665 9.35 18.904 10.295 18.904 11.954C18.904 13.466 17.707 14.516 16.09 14.516Z"/>
</svg>
