<svg viewBox="0 0 32 32" fill="black" xmlns="http://www.w3.org/2000/svg">
<path fill-rule="evenodd" clip-rule="evenodd" d="M0 16C0 24.8201 7.17993 32 16 32C24.8288 32 32 24.8201 32 16C32 7.17994 24.8201 0 16 0C7.17993 0 0 7.17994 0 16ZM1.52672 16C1.52672 8.01745 8.02617 1.52672 16 1.52672C23.9826 1.52672 30.4733 8.01745 30.4733 16C30.4733 23.9826 23.9826 30.4733 16 30.4733C8.01745 30.4733 1.52672 23.9826 1.52672 16ZM11.323 16.238L12.751 16.637C13.423 15.398 14.725 14.432 16.237 14.432C18.232 14.432 19.639 15.818 19.639 18.086C19.639 20.354 18.211 21.74 16.132 21.74C14.263 21.74 12.961 20.879 12.961 19.283C12.961 19.094 12.982 18.884 13.045 18.695L11.428 18.317C11.302 18.632 11.239 18.989 11.239 19.367C11.239 20.459 11.68 21.383 12.583 22.16C13.486 22.916 14.683 23.294 16.132 23.294C17.707 23.294 18.967 22.811 19.933 21.824C20.92 20.837 21.403 19.598 21.403 18.086C21.403 16.553 20.962 15.335 20.101 14.39C19.24 13.445 18.064 12.962 16.573 12.962C15.208 12.962 13.822 13.634 13.003 14.81L13.423 9.854H20.458V8.3H12.016L11.323 16.238Z"/>
</svg>
