<svg viewBox="0 0 32 32" fill="black" xmlns="http://www.w3.org/2000/svg">
<path fill-rule="evenodd" clip-rule="evenodd" d="M0 16C0 24.8201 7.17993 32 16 32C24.8288 32 32 24.8201 32 16C32 7.17994 24.8201 0 16 0C7.17993 0 0 7.17994 0 16ZM1.52672 16C1.52672 8.01745 8.02617 1.52672 16 1.52672C23.9826 1.52672 30.4733 8.01745 30.4733 16C30.4733 23.9826 23.9826 30.4733 16 30.4733C8.01745 30.4733 1.52672 23.9826 1.52672 16ZM13.57 19.052L11.911 18.716C11.785 18.989 11.722 19.346 11.722 19.787C11.722 20.816 12.142 21.656 12.961 22.307C13.78 22.958 14.83 23.294 16.09 23.294C18.337 23.294 20.038 22.055 20.857 19.892C21.34 18.59 21.592 16.784 21.592 14.453C21.592 12.605 21.193 11.114 20.395 9.98C19.471 8.657 18.127 8.006 16.342 8.006C14.851 8.006 13.612 8.51 12.667 9.497C11.722 10.484 11.26 11.66 11.26 13.025C11.26 14.432 11.722 15.608 12.646 16.532C13.591 17.456 14.746 17.918 16.132 17.918C17.665 17.918 19.177 17.036 19.828 15.587C19.828 19.682 18.589 21.74 16.09 21.74C14.347 21.74 13.402 20.9 13.402 19.808C13.402 19.577 13.465 19.325 13.57 19.052ZM16.279 16.364C15.376 16.364 14.599 16.049 13.948 15.44C13.339 14.81 13.024 13.991 13.024 12.983C13.024 11.954 13.339 11.135 13.969 10.505C14.599 9.875 15.376 9.56 16.279 9.56C17.203 9.56 17.98 9.875 18.631 10.505C19.282 11.135 19.618 11.954 19.618 12.983C19.618 13.991 19.282 14.81 18.631 15.44C17.98 16.049 17.203 16.364 16.279 16.364Z"/>
</svg>
