<svg viewBox="0 0 32 32" fill="black" xmlns="http://www.w3.org/2000/svg">
<path fill-rule="evenodd" clip-rule="evenodd" d="M0 16C0 24.8201 7.17993 32 16 32C24.8288 32 32 24.8201 32 16C32 7.17994 24.8201 0 16 0C7.17993 0 0 7.17994 0 16ZM1.52672 16C1.52672 8.01745 8.02617 1.52672 16 1.52672C23.9826 1.52672 30.4733 8.01745 30.4733 16C30.4733 23.9826 23.9826 30.4733 16 30.4733C8.01745 30.4733 1.52672 23.9826 1.52672 16ZM13.155 10.148V11.66C14.52 11.66 15.402 11.429 16.158 10.673V23H17.922V8.3H16.326C15.591 9.581 14.73 10.148 13.155 10.148Z"/>
</svg>
