<svg viewBox="0 0 32 32" fill="black" xmlns="http://www.w3.org/2000/svg">
<path fill-rule="evenodd" clip-rule="evenodd" d="M0 16C0 24.8201 7.17993 32 16 32C24.8288 32 32 24.8201 32 16C32 7.17994 24.8201 0 16 0C7.17993 0 0 7.17994 0 16ZM1.52672 16C1.52672 8.01745 8.02617 1.52672 16 1.52672C23.9826 1.52672 30.4733 8.01745 30.4733 16C30.4733 23.9826 23.9826 30.4733 16 30.4733C8.01745 30.4733 1.52672 23.9826 1.52672 16ZM18.261 12.248L19.92 12.584C20.046 12.206 20.109 11.849 20.109 11.513C20.109 9.413 18.429 8.006 15.825 8.006C13.725 8.006 11.898 9.35 10.995 11.681C10.428 13.109 10.134 14.726 10.134 16.511C10.134 20.795 12.192 23.294 15.531 23.294C17.001 23.294 18.219 22.811 19.206 21.845C20.193 20.858 20.697 19.682 20.697 18.275C20.697 16.868 20.235 15.692 19.332 14.768C18.429 13.844 17.274 13.382 15.909 13.382C14.292 13.382 12.738 14.264 11.919 15.692C11.982 13.865 12.381 12.374 13.074 11.261C13.767 10.127 14.691 9.56 15.846 9.56C17.442 9.56 18.429 10.379 18.429 11.492C18.429 11.723 18.366 11.975 18.261 12.248ZM15.51 14.936C16.455 14.936 17.253 15.251 17.925 15.881C18.597 16.49 18.933 17.33 18.933 18.359C18.933 19.388 18.597 20.207 17.925 20.816C17.253 21.425 16.455 21.74 15.51 21.74C14.586 21.74 13.788 21.425 13.116 20.816C12.444 20.207 12.108 19.388 12.108 18.359C12.108 17.33 12.444 16.49 13.116 15.881C13.788 15.251 14.586 14.936 15.51 14.936Z"/>
</svg>
