<svg viewBox="0 0 32 32" fill="black">
<path fill-rule="evenodd" clip-rule="evenodd" d="M0 16C0 24.8201 7.17993 32 16 32C24.8287 32 32 24.8201 32 16C32 7.17993 24.8201 0 16 0C7.17993 0 0 7.17993 0 16ZM1.52673 16C1.52673 8.01733 8.02612 1.52661 16 1.52661C23.9825 1.52661 30.4733 8.01733 30.4733 16C30.4733 23.9827 23.9825 30.4734 16 30.4734C8.01746 30.4734 1.52673 23.9827 1.52673 16ZM12.615 21.9148C12.7633 22.1331 13.0164 22.2639 13.2781 22.2639C13.5573 22.2639 13.819 22.1069 13.9498 21.8538L24.7764 11.0359C25.073 10.7393 25.073 10.2507 24.7764 9.9541C24.4797 9.65747 23.9912 9.65747 23.6946 9.9541L13.2518 20.3882L8.31396 15.4504C8.01746 15.1538 7.52881 15.1538 7.23218 15.4504C6.93567 15.7471 6.93567 16.2356 7.23218 16.5322L12.615 21.9148Z" />
</svg>
