<svg viewBox="0 0 32 32" fill="black">
<path fill-rule="evenodd" clip-rule="evenodd" d="M16 32C24.8366 32 32 24.8366 32 16C32 7.16344 24.8366 0 16 0C7.16344 0 0 7.16344 0 16C0 24.8366 7.16344 32 16 32ZM22.1733 12.2171C22.4404 11.9005 22.4003 11.4273 22.0837 11.1602C21.7672 10.8931 21.294 10.9332 21.0269 11.2497L14.3016 19.2204L10.6064 16.218C10.2849 15.9568 9.81254 16.0056 9.55134 16.3271C9.29014 16.6486 9.339 17.121 9.66048 17.3822L13.9271 20.8488C14.2444 21.1066 14.7097 21.0628 14.9733 20.7504L22.1733 12.2171Z" />
</svg>
