<svg viewBox="0 0 32 32" fill="black" xmlns="http://www.w3.org/2000/svg">
<path fill-rule="evenodd" clip-rule="evenodd" d="M0 16C0 24.8201 7.17993 32 16 32C24.8288 32 32 24.8201 32 16C32 7.17994 24.8201 0 16 0C7.17993 0 0 7.17994 0 16ZM1.52672 16C1.52672 8.01745 8.02617 1.52672 16 1.52672C23.9826 1.52672 30.4733 8.01745 30.4733 16C30.4733 23.9826 23.9826 30.4733 16 30.4733C8.01745 30.4733 1.52672 23.9826 1.52672 16ZM13.108 18.275L11.491 17.876C11.344 18.233 11.26 18.653 11.26 19.115C11.26 20.207 11.722 21.173 12.625 22.034C13.549 22.874 14.767 23.294 16.258 23.294C17.665 23.294 18.841 22.874 19.786 22.034C20.731 21.173 21.214 20.039 21.214 18.611C21.214 16.742 19.954 15.44 18.043 14.936C19.618 14.453 20.5 13.046 20.5 11.555C20.5 10.547 20.101 9.707 19.282 9.035C18.484 8.342 17.413 8.006 16.069 8.006C14.83 8.006 13.801 8.363 12.982 9.098C12.163 9.812 11.743 10.673 11.743 11.681C11.743 12.059 11.806 12.416 11.911 12.752L13.423 12.521C13.36 12.332 13.318 12.122 13.318 11.891C13.318 10.442 14.515 9.476 16.048 9.476C17.665 9.476 18.778 10.4 18.778 11.765C18.778 13.277 17.77 14.39 15.355 14.39V15.818C17.812 15.818 19.45 16.763 19.45 18.716C19.45 20.648 18.253 21.74 16.258 21.74C15.334 21.74 14.557 21.488 13.948 20.963C13.339 20.438 13.024 19.766 13.024 18.989C13.024 18.758 13.045 18.527 13.108 18.275Z"/>
</svg>
