<svg viewBox="0 0 32 32" fill="black" xmlns="http://www.w3.org/2000/svg">
<path fill-rule="evenodd" clip-rule="evenodd" d="M0 16C0 24.8201 7.17993 32 16 32C24.8288 32 32 24.8201 32 16C32 7.17994 24.8201 0 16 0C7.17993 0 0 7.17994 0 16ZM1.52672 16C1.52672 8.01745 8.02617 1.52672 16 1.52672C23.9826 1.52672 30.4733 8.01745 30.4733 16C30.4733 23.9826 23.9826 30.4733 16 30.4733C8.01745 30.4733 1.52672 23.9826 1.52672 16ZM11.197 21.845V23H20.689V21.446H13.822L18.022 17.225C19.933 15.293 20.626 13.865 20.626 12.08C20.626 10.904 20.185 9.938 19.324 9.161C18.463 8.384 17.35 8.006 15.943 8.006C14.599 8.006 13.486 8.426 12.604 9.287C11.743 10.148 11.302 11.114 11.302 12.227C11.302 12.668 11.386 13.13 11.554 13.613L13.108 13.361C13.003 13.046 12.94 12.731 12.94 12.416C12.94 10.673 14.2 9.476 15.88 9.476C17.644 9.476 18.904 10.631 18.904 12.311C18.904 12.983 18.757 13.592 18.463 14.159C18.169 14.726 17.644 15.377 16.867 16.154L11.197 21.845Z"/>
</svg>
