<svg viewBox="0 0 32 32" fill="black" xmlns="http://www.w3.org/2000/svg">
<path fill-rule="evenodd" clip-rule="evenodd" d="M0 16C0 24.8201 7.17993 32 16 32C24.8288 32 32 24.8201 32 16C32 7.17994 24.8201 0 16 0C7.17993 0 0 7.17994 0 16ZM1.52672 16C1.52672 8.01745 8.02617 1.52672 16 1.52672C23.9826 1.52672 30.4733 8.01745 30.4733 16C30.4733 23.9826 23.9826 30.4733 16 30.4733C8.01745 30.4733 1.52672 23.9826 1.52672 16ZM22.902 15.671C22.902 13.382 22.314 11.555 21.117 10.148C19.92 8.72 18.387 8.006 16.518 8.006C14.649 8.006 13.116 8.72 11.919 10.127C10.722 11.534 10.134 13.382 10.134 15.671C10.134 17.939 10.722 19.787 11.919 21.194C13.116 22.601 14.649 23.294 16.518 23.294C18.387 23.294 19.92 22.601 21.117 21.194C22.314 19.787 22.902 17.939 22.902 15.671ZM16.518 21.74C15.153 21.74 14.019 21.194 13.158 20.102C12.318 19.01 11.898 17.54 11.898 15.671C11.898 13.802 12.318 12.311 13.179 11.219C14.04 10.106 15.153 9.56 16.518 9.56C17.904 9.56 19.017 10.106 19.857 11.219C20.718 12.311 21.138 13.802 21.138 15.671C21.138 17.54 20.718 19.01 19.857 20.102C19.017 21.194 17.904 21.74 16.518 21.74Z" />
</svg>
